<?xml version="1.0" encoding="utf-8"?>
<!-- Generator: Adobe Illustrator 22.0.1, SVG Export Plug-In . SVG Version: 6.00 Build 0)  -->
<svg version="1.1" id="Layer_1" xmlns="http://www.w3.org/2000/svg" xmlns:xlink="http://www.w3.org/1999/xlink" x="0px" y="0px"
	 viewBox="0 0 15 11" style="enable-background:new 0 0 15 11;" xml:space="preserve">
<path d="M8.335,4.914v3.042H7.441V5.009c0-0.761-0.381-1.093-0.922-1.093c-0.542,0-0.932,0.371-0.932,1.131v2.909H4.693V5.009
	c0-0.761-0.379-1.093-0.932-1.093c-0.541,0-0.922,0.361-0.922,1.112v2.928H1.947V3.184h0.846v0.542
	C3.04,3.307,3.449,3.079,3.99,3.079c0.59,0,1.064,0.247,1.341,0.722C5.635,3.345,6.092,3.079,6.69,3.079
	C7.679,3.079,8.335,3.716,8.335,4.914z"/>
<path d="M9.482,6.605l0.807-0.228C10.441,6.929,10.822,7.3,11.497,7.3c0.466,0,0.837-0.209,0.837-0.675
	c0-0.447-0.381-0.58-1.027-0.751c-0.693-0.181-1.549-0.418-1.549-1.407c0-0.808,0.675-1.407,1.625-1.407
	c0.932,0,1.512,0.503,1.645,1.15l-0.779,0.266C12.134,4.115,11.84,3.82,11.346,3.82c-0.447,0-0.714,0.247-0.714,0.589
	c0,0.399,0.371,0.523,0.932,0.675c0.827,0.229,1.636,0.466,1.636,1.483c0,0.96-0.742,1.502-1.711,1.502
	C10.557,8.07,9.672,7.67,9.482,6.605z"/>
</svg>
