<?xml version="1.0" encoding="utf-8"?>
<!-- Generator: Adobe Illustrator 21.1.0, SVG Export Plug-In . SVG Version: 6.00 Build 0)  -->
<svg version="1.1" id="Layer_1" xmlns="http://www.w3.org/2000/svg" xmlns:xlink="http://www.w3.org/1999/xlink" x="0px" y="0px"
	 viewBox="0 0 13 7" style="enable-background:new 0 0 13 7;" xml:space="preserve">
<style type="text/css">
	.st0{fill:none;}
</style>
<g>
	<path d="M7.6,2.8v3H6.7V2.9c0-0.8-0.4-1.1-0.9-1.1C5.2,1.8,4.8,2.2,4.8,3v2.9H3.9V2.9c0-0.8-0.4-1.1-0.9-1.1C2.4,1.8,2.1,2.2,2.1,3
		v2.9H1.2V1.1H2v0.5C2.3,1.2,2.7,1,3.2,1c0.6,0,1.1,0.2,1.3,0.7C4.9,1.3,5.3,1,5.9,1C6.9,1,7.6,1.6,7.6,2.8z"/>
	<path d="M8.4,4.5l0.8-0.2c0.2,0.6,0.5,0.9,1.2,0.9c0.5,0,0.8-0.2,0.8-0.7c0-0.4-0.4-0.6-1-0.8C9.6,3.6,8.7,3.4,8.7,2.4
		C8.7,1.6,9.4,1,10.3,1c0.9,0,1.5,0.5,1.6,1.1l-0.8,0.3c-0.1-0.4-0.4-0.7-0.9-0.7C9.9,1.8,9.6,2,9.6,2.3c0,0.4,0.4,0.5,0.9,0.7
		c0.8,0.2,1.6,0.5,1.6,1.5c0,1-0.7,1.5-1.7,1.5C9.5,6,8.6,5.6,8.4,4.5z"/>
</g>
<rect class="st0" width="13" height="7"/>
</svg>
